<svg width="92" height="92" viewBox="0 0 92 92" fill="none" xmlns="http://www.w3.org/2000/svg">
<path d="M46.0002 25.7C43.8002 25.7 42.0002 23.9 42.0002 21.7V4.5C42.0002 2.3 43.8002 0.5 46.0002 0.5C48.2002 0.5 50.0002 2.3 50.0002 4.5V21.7C50.0002 23.9 48.2002 25.7 46.0002 25.7ZM34.1002 29.6C35.9002 28.3 36.3002 25.8 35.0002 24L24.8002 10.1C23.5002 8.3 21.0002 7.9 19.2002 9.2C17.4002 10.5 17.0002 13 18.3002 14.8L28.4002 28.7C29.2002 29.8 30.4002 30.3 31.6002 30.3C32.5002 30.4 33.4002 30.1 34.1002 29.6ZM26.7002 39.7C27.4002 37.6 26.2002 35.3 24.1002 34.7L7.70018 29.4C5.60018 28.7 3.30018 29.9 2.70018 32C2.00018 34 3.20018 36.3 5.30018 37L21.7002 42.3C22.1002 42.4 22.5002 42.5 22.9002 42.5C24.6002 42.5 26.1002 41.4 26.7002 39.7ZM7.70018 62.6L24.1002 57.3C26.2002 56.6 27.4002 54.4 26.7002 52.3C26.0002 50.2 23.8002 49.1 21.7002 49.7L5.30018 55C3.20018 55.7 2.00018 57.9 2.70018 60C3.20018 61.7 4.80018 62.8 6.50018 62.8C6.90018 62.8 7.30018 62.8 7.70018 62.6ZM24.8002 81.9L35.0002 68C36.3002 66.2 35.9002 63.7 34.1002 62.4C32.3002 61.1 29.8002 61.5 28.5002 63.3L18.4002 77.2C17.1002 79 17.5002 81.5 19.3002 82.8C20.0002 83.3 20.8002 83.6 21.6002 83.6C22.8002 83.6 24.0002 83 24.8002 81.9ZM50.0002 87.5V70.3C50.0002 68.1 48.2002 66.3 46.0002 66.3C43.8002 66.3 42.0002 68.1 42.0002 70.3V87.5C42.0002 89.7 43.8002 91.5 46.0002 91.5C48.2002 91.5 50.0002 89.7 50.0002 87.5ZM72.8002 82.8C74.6002 81.5 75.0002 79 73.7002 77.2L63.5002 63.3C62.2002 61.5 59.7002 61.1 57.9002 62.4C56.1002 63.7 55.7002 66.2 57.0002 68L67.1002 81.9C67.9002 83 69.1002 83.5 70.3002 83.5C71.2002 83.6 72.1002 83.3 72.8002 82.8ZM89.3002 60.1C90.0002 58 88.8002 55.7 86.7002 55.1L70.3002 49.8C68.2002 49.1 65.9002 50.3 65.3002 52.4C64.6002 54.5 65.8002 56.8 67.9002 57.4L84.3002 62.7C84.7002 62.8 85.1002 62.9 85.5002 62.9C87.2002 62.8 88.8002 61.7 89.3002 60.1ZM70.3002 42.3L86.7002 37C88.8002 36.3 90.0002 34.1 89.3002 32C88.6002 29.9 86.4002 28.8 84.3002 29.4L67.9002 34.7C65.8002 35.4 64.6002 37.6 65.3002 39.7C65.8002 41.4 67.4002 42.5 69.1002 42.5C69.5002 42.5 69.9002 42.4 70.3002 42.3ZM63.5002 28.7L73.6002 14.8C74.9002 13 74.5002 10.5 72.7002 9.2C70.9002 7.9 68.4002 8.3 67.1002 10.1L57.0002 24C55.7002 25.8 56.1002 28.3 57.9002 29.6C58.6002 30.1 59.4002 30.4 60.2002 30.4C61.5002 30.4 62.7002 29.8 63.5002 28.7Z" fill="#F51C1C"/>
</svg>
